# xmcd
#
# Track frame offsets: 
#        150
#        17330
#        37778
#        63647
#        82862
#        97609
#        115599
#        128565
#        147434
#        164789
#        178579
#        195934
#        217903
#        238043
#        255207
#        272113
#        282953
#        300937
#        317711
#        340643
#
# Disc length: 4734 seconds
#
# Revision: 0
# Processed by: cddbd v1.5.2PL0 Copyright (c) Steve Scherf et al.
# Submitted via: ExactAudioCopy v1.1
#
DISCID=f9127c14
DTITLE=Kysucký prameň - Komplet CD7
DYEAR=2014
DGENRE=Folklore
TTITLE0=Dobrý večer frajarečka moja
TTITLE1=Šuhajko trávu seče
TTITLE2=Čo to máš má milá
TTITLE3=Napime sa chlapci vínka
TTITLE4=Keď som išiel hore Poľanu
TTITLE5=Otecko môj, mamka moja
TTITLE6=Od kameňa k Zborovu
TTITLE7=Mexiko
TTITLE8=Chodí ku nám jeden šuhaj
TTITLE9=Poslala ma mamka
TTITLE10=Spomienky
TTITLE11=Tak mi moja stara mama povedala
TTITLE12=Za májových
TTITLE13=Prečo si neprišiel
TTITLE14=Cez dedinu
TTITLE15=Beskyde
TTITLE16=Fúka vietor
TTITLE17=Zahraj cigán
TTITLE18=Mal som frajerečku
TTITLE19=Kážu sa mi ženiť
EXTD=
EXTT0=
EXTT1=
EXTT2=
EXTT3=
EXTT4=
EXTT5=
EXTT6=
EXTT7=
EXTT8=
EXTT9=
EXTT10=
EXTT11=
EXTT12=
EXTT13=
EXTT14=
EXTT15=
EXTT16=
EXTT17=
EXTT18=
EXTT19=
PLAYORDER=
